# xmcd
#
# Track frame offsets:
#	150
#	14189
#	30950
#	46302
#	64014
#	81867
#	98229
#	113624
#	125123
#	140595
#	157266
#
# Disc length: 2311 seconds
#
# Revision: 0
# Processed by: cddbd v1.5.2PL0 Copyright (c) Steve Scherf et al.
# Submitted via: EZCDAudioConverter 7.1.5.1
#
DISCID=9609050b
DTITLE=Aaron Crawford - Evergreen
DYEAR=2016
DGENRE=Country
TTITLE0=Evergreen
TTITLE1=Time to Get Dirty
TTITLE2=Me Time
TTITLE3=Can't Afford
TTITLE4=Double It
TTITLE5=Sorry
TTITLE6=Hurricane
TTITLE7=Leaving
TTITLE8=Broken Bones
TTITLE9=The Key
TTITLE10=Hurricane (Studio Warm Up Version)
EXTD=
EXTT0=
EXTT1=
EXTT2=
EXTT3=
EXTT4=
EXTT5=
EXTT6=
EXTT7=
EXTT8=
EXTT9=
EXTT10=
PLAYORDER=
